<svg xmlns="http://www.w3.org/2000/svg" width="276" height="300" viewBox="0 0 276 300">
  <defs>
    <style>
      .cls-1 {
        fill: none;
        stroke: #000;
        stroke-width: 1.87px;
        fill-rule: evenodd;
      }

      .cls-2 {
        font-size: 16px;
        font-family: "Acumin Variable Concept";
      }
    </style>
  </defs>
  <path id="trace" class="cls-1" d="M64,181s24.5,12.5,35,9-6.5,13,7,69"/>
  <path class="cls-1" d="M130,187s-6.5,39-1,76"/>
  <path class="cls-1" d="M106,158s33.5,5.5,23,30"/>
  <path class="cls-1" d="M106,259s2.5,2-2,5,13.5,6,24,0"/>
  <path class="cls-1" d="M128,264s30,12,24,22-47-8-47-8l-1-12"/>
  <path class="cls-1" d="M79,173s16-18,28-14"/>
  <path class="cls-1" d="M12,146s19.5,63,68,26"/>
  <path class="cls-1" d="M21,101S9.5,112,11,146"/>
  <path class="cls-1" d="M18,98s-43,52.5,18,83"/>
  <path class="cls-1" d="M117,139s17.5,16-1,21"/>
  <path class="cls-1" d="M121,117c0.5-3-7,14-4,23"/>
  <path class="cls-1" d="M86,98s35.5-13,35,17"/>
  <path class="cls-1" d="M43,86s27-1,35,12"/>
  <path class="cls-1" d="M86,99s-4.5,2.5-10-2"/>
  <path class="cls-1" d="M79,98s29.5-12.5,36,1"/>
  <path class="cls-1" d="M39,81s14.5,9.5,21,26"/>
  <path class="cls-1" d="M11,84s17.5,37.5,46,46"/>
  <path class="cls-1" d="M74,109s0.5,9.5-18,22"/>
  <path class="cls-1" d="M59,107H56s13.5-2,18,3"/>
  <path class="cls-1" d="M11,85S34.5,56.5,74,51"/>
  <path class="cls-1" d="M88,41s-16-.5-15,11-2,5.5,5,19"/>
  <path class="cls-1" d="M77,71s4.5-11,12-3"/>
  <path class="cls-1" d="M91,37s2,1.5-9,10"/>
  <path class="cls-1" d="M82,44s-7,.5,4,17"/>
  <path class="cls-1" d="M98,87s2-20.5-13-26"/>
  <path class="cls-1" d="M103,58s-8-3.5-4,27"/>
  <path class="cls-1" d="M91,38s-3,18.5,23,22"/>
  <path class="cls-1" d="M103,57s9,6,7,16"/>
  <path class="cls-1" d="M101,65s6-3.5,8,7"/>
  <path class="cls-1" d="M103,6s41.5-3.5,10,55"/>
  <path class="cls-1" d="M87,40S75,1,106,7"/>
  <path class="cls-1" d="M115,58s13.5,8,17,46"/>
  <path class="cls-1" d="M127,100s-4,3,13,15"/>
  <path class="cls-1" d="M131,103v7"/>
  <path class="cls-1" d="M118,78s7,3.5,0,25"/>
  <path class="cls-1" d="M97,120l94-8s2.5,2,7-6"/>
  <path class="cls-1" d="M199,107l16-4s16,10.5,3,19"/>
  <path class="cls-1" d="M218,120"/>
  <path class="cls-1" d="M200,125l17-5"/>
  <path class="cls-1" d="M194,122s4-3,7,3"/>
  <path class="cls-1" d="M101,133l95-11"/>
  <path class="cls-1" d="M119,133s-9,4.5,39,7"/>
  <path class="cls-1" d="M158,128s-6,4.5-1,12"/>
  <path class="cls-1" d="M187,124s5.5,7-31,7"/>
  <path class="cls-1" d="M161,131s9-4.5-4,9"/>
  <path class="cls-1" d="M121,147s65.5,1,63,14"/>
  <path class="cls-1" d="M174,233s16-60,9-73"/>
  <path class="cls-1" d="M129,176s20.5,3.5,34-3-17-7-17,58"/>
  <path class="cls-1" d="M146,230s4,8,30,0"/>
  <path class="cls-1" d="M174,232s57.5,33.5-28,13"/>
  <path class="cls-1" d="M148,245s90-8,105,3,24,0,24,0"/>
  <path class="cls-1" d="M-1,278s43.5-12.5,51-1,58,2,58,2,71-9,43,7"/>
  <path class="cls-1" d="M100,191s9-2.5,13-8S100.5,176,100,191Z"/>
  <path class="cls-1" d="M37,82s-4-9-16,2,13,7,13,7l16-3"/>
  <path class="cls-1" d="M87,18s9.5,24.5,35,18"/>
  <path class="cls-1" d="M116,11S91.5,29.5,101,55"/>
  <path class="cls-1" d="M44,61s67,44.5,80,13"/>
  <path class="cls-1" d="M97,55s3,26-4,38"/>
  <path class="cls-1" d="M11,85s53,49.5,88,43"/>
  <path class="cls-1" d="M80,174s32,13,50,3"/>
  <path class="cls-1" d="M112,280s-14-98,18-102,28.5-5.5,32-3"/>
  <path class="cls-1" d="M123,165s32.5,6.5,62-4"/>
  <path class="cls-1" d="M184,162s-26,34.5-26,84"/>
  <text id="Rest_guitar_on_your_main_leg" data-name="Rest guitar on your main leg" class="cls-2" x="144.5" y="78">Rest guitar on<tspan x="144.5" dy="19.2">your main leg</tspan></text>
  <text id="Rest_heels_on_the_floor" data-name="Rest heels  on the floor" class="cls-2" x="190.5" y="204.5">Rest heels <tspan x="190.5" dy="19.2">on the floor</tspan></text>
  <text id="Lean_forward_slighty" data-name="Lean  forward slighty" class="cls-2" x="6.5" y="18">Lean <tspan x="6.5" dy="19.2">forward</tspan><tspan x="6.5" dy="19.2">slighty</tspan></text>
  <path class="cls-1" d="M63,183l32,74,9-2"/>
  <path class="cls-1" d="M60,185l32,76,11-1"/>
  <path class="cls-1" d="M125,245l15-7-13-29"/>
  <path class="cls-1" d="M126,253l18-11v-7l-16-36"/>
  <path class="cls-1" d="M59,187l-3,47,21-6,2,4-28,8,3-56"/>
  <path class="cls-1" d="M83,230l17-6"/>
  <path class="cls-1" d="M80,228l20-6"/>
  <path class="cls-1" d="M60,124s21,20.5,36,9"/>
  <path class="cls-1" d="M84,118s23,7,12,14"/>
  <path class="cls-1" d="M84,119s5.5,0,8-2"/>
  <path class="cls-1" d="M73,113s26.5-2,19,4"/>
  <path class="cls-1" d="M169,115s14-10.5,18-7,2.5,0,0,5"/>
</svg>
